<mxfile host="app.diagrams.net" modified="2024-03-20T23:38:29.529Z" agent="Mozilla/5.0 (Windows NT 10.0; Win64; x64) AppleWebKit/537.36 (KHTML, like Gecko) Chrome/122.0.0.0 Safari/537.36" etag="AAHvSUe5tG7b211ostvZ" version="24.0.7" type="device">
  <diagram name="Página-1" id="oZNNonYrC4Blx-tNTsK6">
    <mxGraphModel dx="819" dy="446" grid="1" gridSize="10" guides="1" tooltips="1" connect="1" arrows="1" fold="1" page="1" pageScale="1" pageWidth="1169" pageHeight="827" math="0" shadow="0">
      <root>
        <mxCell id="0" />
        <mxCell id="1" parent="0" />
        <mxCell id="_yDDIeNhgwAIsd_Z6IYs-2" value="" style="ellipse;whiteSpace=wrap;html=1;aspect=fixed;" vertex="1" parent="1">
          <mxGeometry x="550" y="189" width="10" height="10" as="geometry" />
        </mxCell>
        <mxCell id="_yDDIeNhgwAIsd_Z6IYs-3" style="edgeStyle=orthogonalEdgeStyle;rounded=0;orthogonalLoop=1;jettySize=auto;html=1;entryX=0.038;entryY=0;entryDx=0;entryDy=0;entryPerimeter=0;endArrow=none;endFill=0;" edge="1" parent="1" source="_yDDIeNhgwAIsd_Z6IYs-2" target="_yDDIeNhgwAIsd_Z6IYs-14">
          <mxGeometry relative="1" as="geometry" />
        </mxCell>
        <mxCell id="_yDDIeNhgwAIsd_Z6IYs-4" value="&lt;font style=&quot;font-size: 8px;&quot;&gt;nome&lt;/font&gt;" style="text;html=1;align=center;verticalAlign=middle;resizable=0;points=[];autosize=1;strokeColor=none;fillColor=none;" vertex="1" parent="1">
          <mxGeometry x="535" y="167" width="40" height="30" as="geometry" />
        </mxCell>
        <mxCell id="_yDDIeNhgwAIsd_Z6IYs-5" value="" style="ellipse;whiteSpace=wrap;html=1;aspect=fixed;" vertex="1" parent="1">
          <mxGeometry x="575" y="189" width="10" height="10" as="geometry" />
        </mxCell>
        <mxCell id="_yDDIeNhgwAIsd_Z6IYs-6" style="edgeStyle=orthogonalEdgeStyle;rounded=0;orthogonalLoop=1;jettySize=auto;html=1;entryX=0.038;entryY=0;entryDx=0;entryDy=0;entryPerimeter=0;endArrow=none;endFill=0;" edge="1" parent="1" source="_yDDIeNhgwAIsd_Z6IYs-5">
          <mxGeometry relative="1" as="geometry">
            <mxPoint x="580" y="209" as="targetPoint" />
          </mxGeometry>
        </mxCell>
        <mxCell id="_yDDIeNhgwAIsd_Z6IYs-7" value="&lt;font style=&quot;font-size: 8px;&quot;&gt;nasc.&lt;/font&gt;" style="text;html=1;align=center;verticalAlign=middle;resizable=0;points=[];autosize=1;strokeColor=none;fillColor=none;" vertex="1" parent="1">
          <mxGeometry x="560" y="167" width="40" height="30" as="geometry" />
        </mxCell>
        <mxCell id="_yDDIeNhgwAIsd_Z6IYs-8" value="" style="ellipse;whiteSpace=wrap;html=1;aspect=fixed;" vertex="1" parent="1">
          <mxGeometry x="645" y="189" width="10" height="10" as="geometry" />
        </mxCell>
        <mxCell id="_yDDIeNhgwAIsd_Z6IYs-9" style="edgeStyle=orthogonalEdgeStyle;rounded=0;orthogonalLoop=1;jettySize=auto;html=1;entryX=0.038;entryY=0;entryDx=0;entryDy=0;entryPerimeter=0;endArrow=none;endFill=0;" edge="1" parent="1" source="_yDDIeNhgwAIsd_Z6IYs-8">
          <mxGeometry relative="1" as="geometry">
            <mxPoint x="650" y="209" as="targetPoint" />
          </mxGeometry>
        </mxCell>
        <mxCell id="_yDDIeNhgwAIsd_Z6IYs-10" value="&lt;font style=&quot;font-size: 8px;&quot;&gt;end.&lt;/font&gt;" style="text;html=1;align=center;verticalAlign=middle;resizable=0;points=[];autosize=1;strokeColor=none;fillColor=none;" vertex="1" parent="1">
          <mxGeometry x="630" y="167" width="40" height="30" as="geometry" />
        </mxCell>
        <mxCell id="_yDDIeNhgwAIsd_Z6IYs-11" value="" style="ellipse;whiteSpace=wrap;html=1;aspect=fixed;" vertex="1" parent="1">
          <mxGeometry x="670" y="189" width="10" height="10" as="geometry" />
        </mxCell>
        <mxCell id="_yDDIeNhgwAIsd_Z6IYs-12" style="edgeStyle=orthogonalEdgeStyle;rounded=0;orthogonalLoop=1;jettySize=auto;html=1;entryX=0.038;entryY=0;entryDx=0;entryDy=0;entryPerimeter=0;endArrow=none;endFill=0;" edge="1" parent="1" source="_yDDIeNhgwAIsd_Z6IYs-11">
          <mxGeometry relative="1" as="geometry">
            <mxPoint x="675" y="209" as="targetPoint" />
            <Array as="points">
              <mxPoint x="675" y="209" />
            </Array>
          </mxGeometry>
        </mxCell>
        <mxCell id="_yDDIeNhgwAIsd_Z6IYs-13" value="&lt;font style=&quot;font-size: 8px;&quot;&gt;docs&lt;/font&gt;" style="text;html=1;align=center;verticalAlign=middle;resizable=0;points=[];autosize=1;strokeColor=none;fillColor=none;" vertex="1" parent="1">
          <mxGeometry x="655" y="167" width="40" height="30" as="geometry" />
        </mxCell>
        <mxCell id="_yDDIeNhgwAIsd_Z6IYs-15" value="1" style="text;html=1;align=center;verticalAlign=middle;resizable=0;points=[];autosize=1;strokeColor=none;fillColor=none;" vertex="1" parent="1">
          <mxGeometry x="860" y="197" width="30" height="30" as="geometry" />
        </mxCell>
        <mxCell id="_yDDIeNhgwAIsd_Z6IYs-16" value="" style="ellipse;whiteSpace=wrap;html=1;aspect=fixed;" vertex="1" parent="1">
          <mxGeometry x="610" y="189" width="10" height="10" as="geometry" />
        </mxCell>
        <mxCell id="_yDDIeNhgwAIsd_Z6IYs-17" style="edgeStyle=orthogonalEdgeStyle;rounded=0;orthogonalLoop=1;jettySize=auto;html=1;entryX=0.038;entryY=0;entryDx=0;entryDy=0;entryPerimeter=0;endArrow=none;endFill=0;" edge="1" source="_yDDIeNhgwAIsd_Z6IYs-16" parent="1">
          <mxGeometry relative="1" as="geometry">
            <mxPoint x="615" y="209" as="targetPoint" />
          </mxGeometry>
        </mxCell>
        <mxCell id="_yDDIeNhgwAIsd_Z6IYs-18" value="&lt;font style=&quot;font-size: 8px;&quot;&gt;sexo&lt;/font&gt;" style="text;html=1;align=center;verticalAlign=middle;resizable=0;points=[];autosize=1;strokeColor=none;fillColor=none;" vertex="1" parent="1">
          <mxGeometry x="595" y="167" width="40" height="30" as="geometry" />
        </mxCell>
        <mxCell id="_yDDIeNhgwAIsd_Z6IYs-25" value="" style="ellipse;whiteSpace=wrap;html=1;aspect=fixed;" vertex="1" parent="1">
          <mxGeometry x="550" y="247" width="10" height="10" as="geometry" />
        </mxCell>
        <mxCell id="_yDDIeNhgwAIsd_Z6IYs-27" value="&lt;font style=&quot;font-size: 8px;&quot;&gt;data_admissão&lt;/font&gt;" style="text;html=1;align=center;verticalAlign=middle;resizable=0;points=[];autosize=1;strokeColor=none;fillColor=none;" vertex="1" parent="1">
          <mxGeometry x="515" y="247" width="80" height="30" as="geometry" />
        </mxCell>
        <mxCell id="_yDDIeNhgwAIsd_Z6IYs-28" style="edgeStyle=orthogonalEdgeStyle;rounded=0;orthogonalLoop=1;jettySize=auto;html=1;entryX=0.041;entryY=1;entryDx=0;entryDy=0;entryPerimeter=0;endArrow=none;endFill=0;" edge="1" parent="1" source="_yDDIeNhgwAIsd_Z6IYs-25" target="_yDDIeNhgwAIsd_Z6IYs-14">
          <mxGeometry relative="1" as="geometry" />
        </mxCell>
        <mxCell id="_yDDIeNhgwAIsd_Z6IYs-33" value="" style="ellipse;whiteSpace=wrap;html=1;aspect=fixed;" vertex="1" parent="1">
          <mxGeometry x="665" y="247" width="10" height="10" as="geometry" />
        </mxCell>
        <mxCell id="_yDDIeNhgwAIsd_Z6IYs-34" value="&lt;span style=&quot;font-size: 8px;&quot;&gt;salario&lt;/span&gt;" style="text;html=1;align=center;verticalAlign=middle;resizable=0;points=[];autosize=1;strokeColor=none;fillColor=none;" vertex="1" parent="1">
          <mxGeometry x="645" y="247" width="50" height="30" as="geometry" />
        </mxCell>
        <mxCell id="_yDDIeNhgwAIsd_Z6IYs-35" style="edgeStyle=orthogonalEdgeStyle;rounded=0;orthogonalLoop=1;jettySize=auto;html=1;entryX=0.041;entryY=1;entryDx=0;entryDy=0;entryPerimeter=0;endArrow=none;endFill=0;" edge="1" source="_yDDIeNhgwAIsd_Z6IYs-33" parent="1">
          <mxGeometry relative="1" as="geometry">
            <mxPoint x="670" y="239" as="targetPoint" />
          </mxGeometry>
        </mxCell>
        <mxCell id="_yDDIeNhgwAIsd_Z6IYs-36" value="" style="ellipse;whiteSpace=wrap;html=1;aspect=fixed;" vertex="1" parent="1">
          <mxGeometry x="720" y="349" width="10" height="10" as="geometry" />
        </mxCell>
        <mxCell id="_yDDIeNhgwAIsd_Z6IYs-37" style="edgeStyle=orthogonalEdgeStyle;rounded=0;orthogonalLoop=1;jettySize=auto;html=1;entryX=0.038;entryY=0;entryDx=0;entryDy=0;entryPerimeter=0;endArrow=none;endFill=0;" edge="1" parent="1" source="_yDDIeNhgwAIsd_Z6IYs-36" target="_yDDIeNhgwAIsd_Z6IYs-58">
          <mxGeometry relative="1" as="geometry" />
        </mxCell>
        <mxCell id="_yDDIeNhgwAIsd_Z6IYs-38" value="&lt;font style=&quot;font-size: 8px;&quot;&gt;periodo&lt;/font&gt;" style="text;html=1;align=center;verticalAlign=middle;resizable=0;points=[];autosize=1;strokeColor=none;fillColor=none;" vertex="1" parent="1">
          <mxGeometry x="700" y="327" width="50" height="30" as="geometry" />
        </mxCell>
        <mxCell id="_yDDIeNhgwAIsd_Z6IYs-49" value="" style="ellipse;whiteSpace=wrap;html=1;aspect=fixed;" vertex="1" parent="1">
          <mxGeometry x="755" y="349" width="10" height="10" as="geometry" />
        </mxCell>
        <mxCell id="_yDDIeNhgwAIsd_Z6IYs-50" style="edgeStyle=orthogonalEdgeStyle;rounded=0;orthogonalLoop=1;jettySize=auto;html=1;entryX=0.038;entryY=0;entryDx=0;entryDy=0;entryPerimeter=0;endArrow=none;endFill=0;" edge="1" parent="1" source="_yDDIeNhgwAIsd_Z6IYs-49">
          <mxGeometry relative="1" as="geometry">
            <mxPoint x="760" y="369" as="targetPoint" />
          </mxGeometry>
        </mxCell>
        <mxCell id="_yDDIeNhgwAIsd_Z6IYs-51" value="&lt;span style=&quot;font-size: 8px;&quot;&gt;custo&lt;/span&gt;" style="text;html=1;align=center;verticalAlign=middle;resizable=0;points=[];autosize=1;strokeColor=none;fillColor=none;" vertex="1" parent="1">
          <mxGeometry x="740" y="327" width="40" height="30" as="geometry" />
        </mxCell>
        <mxCell id="_yDDIeNhgwAIsd_Z6IYs-98" style="edgeStyle=orthogonalEdgeStyle;rounded=0;orthogonalLoop=1;jettySize=auto;html=1;entryX=0.971;entryY=0.494;entryDx=0;entryDy=0;entryPerimeter=0;endArrow=none;endFill=0;" edge="1" parent="1" source="_yDDIeNhgwAIsd_Z6IYs-58" target="_yDDIeNhgwAIsd_Z6IYs-96">
          <mxGeometry relative="1" as="geometry">
            <mxPoint x="665" y="384" as="targetPoint" />
          </mxGeometry>
        </mxCell>
        <mxCell id="_yDDIeNhgwAIsd_Z6IYs-58" value="PROJETO" style="rounded=0;whiteSpace=wrap;html=1;" vertex="1" parent="1">
          <mxGeometry x="720" y="369" width="130" height="30" as="geometry" />
        </mxCell>
        <mxCell id="_yDDIeNhgwAIsd_Z6IYs-82" value="" style="ellipse;whiteSpace=wrap;html=1;aspect=fixed;" vertex="1" parent="1">
          <mxGeometry x="890" y="189" width="10" height="10" as="geometry" />
        </mxCell>
        <mxCell id="_yDDIeNhgwAIsd_Z6IYs-83" style="edgeStyle=orthogonalEdgeStyle;rounded=0;orthogonalLoop=1;jettySize=auto;html=1;entryX=0.038;entryY=0;entryDx=0;entryDy=0;entryPerimeter=0;endArrow=none;endFill=0;" edge="1" parent="1" source="_yDDIeNhgwAIsd_Z6IYs-82" target="_yDDIeNhgwAIsd_Z6IYs-87">
          <mxGeometry relative="1" as="geometry" />
        </mxCell>
        <mxCell id="_yDDIeNhgwAIsd_Z6IYs-87" value="DEPARTAMENTO" style="rounded=0;whiteSpace=wrap;html=1;" vertex="1" parent="1">
          <mxGeometry x="890" y="209" width="130" height="30" as="geometry" />
        </mxCell>
        <mxCell id="_yDDIeNhgwAIsd_Z6IYs-88" value="&lt;span style=&quot;font-size: 8px;&quot;&gt;codigo&lt;/span&gt;" style="text;html=1;align=center;verticalAlign=middle;resizable=0;points=[];autosize=1;strokeColor=none;fillColor=none;" vertex="1" parent="1">
          <mxGeometry x="870" y="167" width="50" height="30" as="geometry" />
        </mxCell>
        <mxCell id="_yDDIeNhgwAIsd_Z6IYs-92" style="edgeStyle=orthogonalEdgeStyle;rounded=0;orthogonalLoop=1;jettySize=auto;html=1;endArrow=none;endFill=0;" edge="1" parent="1" source="_yDDIeNhgwAIsd_Z6IYs-89" target="_yDDIeNhgwAIsd_Z6IYs-87">
          <mxGeometry relative="1" as="geometry" />
        </mxCell>
        <mxCell id="_yDDIeNhgwAIsd_Z6IYs-89" value="&lt;font style=&quot;font-size: 8px;&quot;&gt;TRABALHA&lt;/font&gt;" style="rhombus;whiteSpace=wrap;html=1;" vertex="1" parent="1">
          <mxGeometry x="740" y="204" width="95" height="40" as="geometry" />
        </mxCell>
        <mxCell id="_yDDIeNhgwAIsd_Z6IYs-93" value="n" style="text;html=1;align=center;verticalAlign=middle;resizable=0;points=[];autosize=1;strokeColor=none;fillColor=none;" vertex="1" parent="1">
          <mxGeometry x="680" y="197" width="30" height="30" as="geometry" />
        </mxCell>
        <mxCell id="_yDDIeNhgwAIsd_Z6IYs-94" style="edgeStyle=orthogonalEdgeStyle;rounded=0;orthogonalLoop=1;jettySize=auto;html=1;entryX=0.992;entryY=0.498;entryDx=0;entryDy=0;entryPerimeter=0;endArrow=none;endFill=0;" edge="1" parent="1" source="_yDDIeNhgwAIsd_Z6IYs-89" target="_yDDIeNhgwAIsd_Z6IYs-14">
          <mxGeometry relative="1" as="geometry" />
        </mxCell>
        <mxCell id="_yDDIeNhgwAIsd_Z6IYs-95" style="edgeStyle=orthogonalEdgeStyle;rounded=0;orthogonalLoop=1;jettySize=auto;html=1;entryX=0.502;entryY=0.056;entryDx=0;entryDy=0;entryPerimeter=0;endArrow=none;endFill=0;" edge="1" parent="1" source="_yDDIeNhgwAIsd_Z6IYs-14" target="_yDDIeNhgwAIsd_Z6IYs-96">
          <mxGeometry relative="1" as="geometry">
            <mxPoint x="615" y="357" as="targetPoint" />
          </mxGeometry>
        </mxCell>
        <mxCell id="_yDDIeNhgwAIsd_Z6IYs-14" value="EMPREGADO" style="rounded=0;whiteSpace=wrap;html=1;" vertex="1" parent="1">
          <mxGeometry x="550" y="209" width="130" height="30" as="geometry" />
        </mxCell>
        <mxCell id="_yDDIeNhgwAIsd_Z6IYs-96" value="&lt;font style=&quot;font-size: 8px;&quot;&gt;GERENCIA&lt;/font&gt;" style="rhombus;whiteSpace=wrap;html=1;" vertex="1" parent="1">
          <mxGeometry x="567.5" y="364" width="95" height="40" as="geometry" />
        </mxCell>
        <mxCell id="_yDDIeNhgwAIsd_Z6IYs-99" value="1,n" style="text;html=1;align=center;verticalAlign=middle;resizable=0;points=[];autosize=1;strokeColor=none;fillColor=none;" vertex="1" parent="1">
          <mxGeometry x="680" y="357" width="40" height="30" as="geometry" />
        </mxCell>
        <mxCell id="_yDDIeNhgwAIsd_Z6IYs-100" value="1" style="text;html=1;align=center;verticalAlign=middle;resizable=0;points=[];autosize=1;strokeColor=none;fillColor=none;" vertex="1" parent="1">
          <mxGeometry x="615" y="239" width="30" height="30" as="geometry" />
        </mxCell>
        <mxCell id="_yDDIeNhgwAIsd_Z6IYs-102" value="" style="ellipse;whiteSpace=wrap;html=1;aspect=fixed;" vertex="1" parent="1">
          <mxGeometry x="210" y="189" width="10" height="10" as="geometry" />
        </mxCell>
        <mxCell id="_yDDIeNhgwAIsd_Z6IYs-103" style="edgeStyle=orthogonalEdgeStyle;rounded=0;orthogonalLoop=1;jettySize=auto;html=1;entryX=0.038;entryY=0;entryDx=0;entryDy=0;entryPerimeter=0;endArrow=none;endFill=0;" edge="1" parent="1" source="_yDDIeNhgwAIsd_Z6IYs-102" target="_yDDIeNhgwAIsd_Z6IYs-104">
          <mxGeometry relative="1" as="geometry" />
        </mxCell>
        <mxCell id="_yDDIeNhgwAIsd_Z6IYs-105" value="&lt;span style=&quot;font-size: 8px;&quot;&gt;nome&lt;/span&gt;" style="text;html=1;align=center;verticalAlign=middle;resizable=0;points=[];autosize=1;strokeColor=none;fillColor=none;" vertex="1" parent="1">
          <mxGeometry x="195" y="167" width="40" height="30" as="geometry" />
        </mxCell>
        <mxCell id="_yDDIeNhgwAIsd_Z6IYs-188" style="edgeStyle=orthogonalEdgeStyle;rounded=0;orthogonalLoop=1;jettySize=auto;html=1;entryX=0;entryY=0.5;entryDx=0;entryDy=0;endArrow=none;endFill=0;" edge="1" parent="1" source="_yDDIeNhgwAIsd_Z6IYs-109" target="_yDDIeNhgwAIsd_Z6IYs-186">
          <mxGeometry relative="1" as="geometry">
            <Array as="points">
              <mxPoint x="380" y="420" />
              <mxPoint x="350" y="420" />
              <mxPoint x="350" y="465" />
            </Array>
          </mxGeometry>
        </mxCell>
        <mxCell id="_yDDIeNhgwAIsd_Z6IYs-189" style="edgeStyle=orthogonalEdgeStyle;rounded=0;orthogonalLoop=1;jettySize=auto;html=1;entryX=1;entryY=0.5;entryDx=0;entryDy=0;endArrow=none;endFill=0;" edge="1" parent="1" source="_yDDIeNhgwAIsd_Z6IYs-109" target="_yDDIeNhgwAIsd_Z6IYs-186">
          <mxGeometry relative="1" as="geometry">
            <Array as="points">
              <mxPoint x="450" y="420" />
              <mxPoint x="480" y="420" />
              <mxPoint x="480" y="465" />
            </Array>
          </mxGeometry>
        </mxCell>
        <mxCell id="_yDDIeNhgwAIsd_Z6IYs-109" value="FORNECEDOR" style="rounded=0;whiteSpace=wrap;html=1;" vertex="1" parent="1">
          <mxGeometry x="350" y="369" width="130" height="30" as="geometry" />
        </mxCell>
        <mxCell id="_yDDIeNhgwAIsd_Z6IYs-111" style="edgeStyle=orthogonalEdgeStyle;rounded=0;orthogonalLoop=1;jettySize=auto;html=1;endArrow=none;endFill=0;" edge="1" parent="1" source="_yDDIeNhgwAIsd_Z6IYs-112">
          <mxGeometry relative="1" as="geometry">
            <mxPoint x="550" y="224" as="targetPoint" />
          </mxGeometry>
        </mxCell>
        <mxCell id="_yDDIeNhgwAIsd_Z6IYs-112" value="&lt;font style=&quot;font-size: 8px;&quot;&gt;CONSOME&lt;/font&gt;" style="rhombus;whiteSpace=wrap;html=1;" vertex="1" parent="1">
          <mxGeometry x="400" y="204" width="95" height="40" as="geometry" />
        </mxCell>
        <mxCell id="_yDDIeNhgwAIsd_Z6IYs-113" style="edgeStyle=orthogonalEdgeStyle;rounded=0;orthogonalLoop=1;jettySize=auto;html=1;endArrow=none;endFill=0;" edge="1" parent="1" source="_yDDIeNhgwAIsd_Z6IYs-112">
          <mxGeometry relative="1" as="geometry">
            <mxPoint x="340" y="224" as="targetPoint" />
          </mxGeometry>
        </mxCell>
        <mxCell id="_yDDIeNhgwAIsd_Z6IYs-114" value="" style="ellipse;whiteSpace=wrap;html=1;aspect=fixed;" vertex="1" parent="1">
          <mxGeometry x="245" y="189" width="10" height="10" as="geometry" />
        </mxCell>
        <mxCell id="_yDDIeNhgwAIsd_Z6IYs-115" style="edgeStyle=orthogonalEdgeStyle;rounded=0;orthogonalLoop=1;jettySize=auto;html=1;entryX=0.038;entryY=0;entryDx=0;entryDy=0;entryPerimeter=0;endArrow=none;endFill=0;" edge="1" source="_yDDIeNhgwAIsd_Z6IYs-114" parent="1">
          <mxGeometry relative="1" as="geometry">
            <mxPoint x="250" y="209" as="targetPoint" />
          </mxGeometry>
        </mxCell>
        <mxCell id="_yDDIeNhgwAIsd_Z6IYs-116" value="&lt;span style=&quot;font-size: 8px;&quot;&gt;comp.&lt;/span&gt;" style="text;html=1;align=center;verticalAlign=middle;resizable=0;points=[];autosize=1;strokeColor=none;fillColor=none;" vertex="1" parent="1">
          <mxGeometry x="225" y="167" width="50" height="30" as="geometry" />
        </mxCell>
        <mxCell id="_yDDIeNhgwAIsd_Z6IYs-120" value="" style="ellipse;whiteSpace=wrap;html=1;aspect=fixed;" vertex="1" parent="1">
          <mxGeometry x="285" y="189" width="10" height="10" as="geometry" />
        </mxCell>
        <mxCell id="_yDDIeNhgwAIsd_Z6IYs-121" style="edgeStyle=orthogonalEdgeStyle;rounded=0;orthogonalLoop=1;jettySize=auto;html=1;entryX=0.038;entryY=0;entryDx=0;entryDy=0;entryPerimeter=0;endArrow=none;endFill=0;" edge="1" source="_yDDIeNhgwAIsd_Z6IYs-120" parent="1">
          <mxGeometry relative="1" as="geometry">
            <mxPoint x="290" y="209" as="targetPoint" />
          </mxGeometry>
        </mxCell>
        <mxCell id="_yDDIeNhgwAIsd_Z6IYs-122" value="&lt;font style=&quot;font-size: 8px;&quot;&gt;largura&lt;/font&gt;" style="text;html=1;align=center;verticalAlign=middle;resizable=0;points=[];autosize=1;strokeColor=none;fillColor=none;" vertex="1" parent="1">
          <mxGeometry x="265" y="167" width="50" height="30" as="geometry" />
        </mxCell>
        <mxCell id="_yDDIeNhgwAIsd_Z6IYs-123" value="" style="ellipse;whiteSpace=wrap;html=1;aspect=fixed;" vertex="1" parent="1">
          <mxGeometry x="325" y="189" width="10" height="10" as="geometry" />
        </mxCell>
        <mxCell id="_yDDIeNhgwAIsd_Z6IYs-124" style="edgeStyle=orthogonalEdgeStyle;rounded=0;orthogonalLoop=1;jettySize=auto;html=1;entryX=0.038;entryY=0;entryDx=0;entryDy=0;entryPerimeter=0;endArrow=none;endFill=0;" edge="1" source="_yDDIeNhgwAIsd_Z6IYs-123" parent="1">
          <mxGeometry relative="1" as="geometry">
            <mxPoint x="330" y="209" as="targetPoint" />
          </mxGeometry>
        </mxCell>
        <mxCell id="_yDDIeNhgwAIsd_Z6IYs-125" value="&lt;font style=&quot;font-size: 8px;&quot;&gt;altura&lt;/font&gt;" style="text;html=1;align=center;verticalAlign=middle;resizable=0;points=[];autosize=1;strokeColor=none;fillColor=none;" vertex="1" parent="1">
          <mxGeometry x="310" y="167" width="40" height="30" as="geometry" />
        </mxCell>
        <mxCell id="_yDDIeNhgwAIsd_Z6IYs-155" style="edgeStyle=orthogonalEdgeStyle;rounded=0;orthogonalLoop=1;jettySize=auto;html=1;entryX=0;entryY=0.5;entryDx=0;entryDy=0;endArrow=none;endFill=0;" edge="1" parent="1" source="_yDDIeNhgwAIsd_Z6IYs-104" target="_yDDIeNhgwAIsd_Z6IYs-154">
          <mxGeometry relative="1" as="geometry" />
        </mxCell>
        <mxCell id="_yDDIeNhgwAIsd_Z6IYs-104" value="PEÇA" style="rounded=0;whiteSpace=wrap;html=1;" vertex="1" parent="1">
          <mxGeometry x="210" y="209" width="130" height="30" as="geometry" />
        </mxCell>
        <mxCell id="_yDDIeNhgwAIsd_Z6IYs-129" style="edgeStyle=orthogonalEdgeStyle;rounded=0;orthogonalLoop=1;jettySize=auto;html=1;entryX=0.971;entryY=0.494;entryDx=0;entryDy=0;entryPerimeter=0;endArrow=none;endFill=0;exitX=0;exitY=0.5;exitDx=0;exitDy=0;" edge="1" parent="1" target="_yDDIeNhgwAIsd_Z6IYs-131" source="_yDDIeNhgwAIsd_Z6IYs-109">
          <mxGeometry relative="1" as="geometry">
            <mxPoint x="322.5" y="384" as="targetPoint" />
            <mxPoint x="377.5" y="384" as="sourcePoint" />
          </mxGeometry>
        </mxCell>
        <mxCell id="_yDDIeNhgwAIsd_Z6IYs-130" style="edgeStyle=orthogonalEdgeStyle;rounded=0;orthogonalLoop=1;jettySize=auto;html=1;entryX=0.502;entryY=0.056;entryDx=0;entryDy=0;entryPerimeter=0;endArrow=none;endFill=0;" edge="1" parent="1" target="_yDDIeNhgwAIsd_Z6IYs-131">
          <mxGeometry relative="1" as="geometry">
            <mxPoint x="272.5" y="357" as="targetPoint" />
            <mxPoint x="272.5" y="239" as="sourcePoint" />
          </mxGeometry>
        </mxCell>
        <mxCell id="_yDDIeNhgwAIsd_Z6IYs-131" value="&lt;font style=&quot;font-size: 8px;&quot;&gt;FORNECE&lt;/font&gt;" style="rhombus;whiteSpace=wrap;html=1;" vertex="1" parent="1">
          <mxGeometry x="225" y="364" width="95" height="40" as="geometry" />
        </mxCell>
        <mxCell id="_yDDIeNhgwAIsd_Z6IYs-134" value="n" style="text;html=1;align=center;verticalAlign=middle;resizable=0;points=[];autosize=1;strokeColor=none;fillColor=none;" vertex="1" parent="1">
          <mxGeometry x="320" y="357" width="30" height="30" as="geometry" />
        </mxCell>
        <mxCell id="_yDDIeNhgwAIsd_Z6IYs-135" value="n" style="text;html=1;align=center;verticalAlign=middle;resizable=0;points=[];autosize=1;strokeColor=none;fillColor=none;" vertex="1" parent="1">
          <mxGeometry x="275" y="237" width="30" height="30" as="geometry" />
        </mxCell>
        <mxCell id="_yDDIeNhgwAIsd_Z6IYs-137" value="" style="ellipse;whiteSpace=wrap;html=1;aspect=fixed;" vertex="1" parent="1">
          <mxGeometry x="185" y="379" width="10" height="10" as="geometry" />
        </mxCell>
        <mxCell id="_yDDIeNhgwAIsd_Z6IYs-138" style="edgeStyle=orthogonalEdgeStyle;rounded=0;orthogonalLoop=1;jettySize=auto;html=1;entryX=0;entryY=0.5;entryDx=0;entryDy=0;endArrow=none;endFill=0;" edge="1" source="_yDDIeNhgwAIsd_Z6IYs-137" parent="1" target="_yDDIeNhgwAIsd_Z6IYs-131">
          <mxGeometry relative="1" as="geometry">
            <mxPoint x="200" y="391" as="targetPoint" />
          </mxGeometry>
        </mxCell>
        <mxCell id="_yDDIeNhgwAIsd_Z6IYs-139" value="&lt;span style=&quot;font-size: 8px;&quot;&gt;quantidade&lt;/span&gt;" style="text;html=1;align=center;verticalAlign=middle;resizable=0;points=[];autosize=1;strokeColor=none;fillColor=none;" vertex="1" parent="1">
          <mxGeometry x="160" y="357" width="60" height="30" as="geometry" />
        </mxCell>
        <mxCell id="_yDDIeNhgwAIsd_Z6IYs-140" value="" style="ellipse;whiteSpace=wrap;html=1;aspect=fixed;" vertex="1" parent="1">
          <mxGeometry x="185" y="409" width="10" height="10" as="geometry" />
        </mxCell>
        <mxCell id="_yDDIeNhgwAIsd_Z6IYs-141" style="edgeStyle=orthogonalEdgeStyle;rounded=0;orthogonalLoop=1;jettySize=auto;html=1;entryX=0;entryY=1;entryDx=0;entryDy=0;endArrow=none;endFill=0;" edge="1" parent="1" source="_yDDIeNhgwAIsd_Z6IYs-140" target="_yDDIeNhgwAIsd_Z6IYs-131">
          <mxGeometry relative="1" as="geometry">
            <mxPoint x="225" y="414" as="targetPoint" />
            <Array as="points">
              <mxPoint x="249" y="414" />
            </Array>
          </mxGeometry>
        </mxCell>
        <mxCell id="_yDDIeNhgwAIsd_Z6IYs-142" value="&lt;span style=&quot;font-size: 8px;&quot;&gt;data&lt;/span&gt;" style="text;html=1;align=center;verticalAlign=middle;resizable=0;points=[];autosize=1;strokeColor=none;fillColor=none;" vertex="1" parent="1">
          <mxGeometry x="170" y="387" width="40" height="30" as="geometry" />
        </mxCell>
        <mxCell id="_yDDIeNhgwAIsd_Z6IYs-143" value="" style="ellipse;whiteSpace=wrap;html=1;aspect=fixed;" vertex="1" parent="1">
          <mxGeometry x="185" y="347" width="10" height="10" as="geometry" />
        </mxCell>
        <mxCell id="_yDDIeNhgwAIsd_Z6IYs-144" style="edgeStyle=orthogonalEdgeStyle;rounded=0;orthogonalLoop=1;jettySize=auto;html=1;entryX=0;entryY=0;entryDx=0;entryDy=0;endArrow=none;endFill=0;" edge="1" parent="1" source="_yDDIeNhgwAIsd_Z6IYs-143" target="_yDDIeNhgwAIsd_Z6IYs-131">
          <mxGeometry relative="1" as="geometry">
            <mxPoint x="225" y="352" as="targetPoint" />
            <Array as="points">
              <mxPoint x="249" y="352" />
            </Array>
          </mxGeometry>
        </mxCell>
        <mxCell id="_yDDIeNhgwAIsd_Z6IYs-145" value="&lt;span style=&quot;font-size: 8px;&quot;&gt;hora&lt;/span&gt;" style="text;html=1;align=center;verticalAlign=middle;resizable=0;points=[];autosize=1;strokeColor=none;fillColor=none;" vertex="1" parent="1">
          <mxGeometry x="170" y="325" width="40" height="30" as="geometry" />
        </mxCell>
        <mxCell id="_yDDIeNhgwAIsd_Z6IYs-148" style="edgeStyle=orthogonalEdgeStyle;rounded=0;orthogonalLoop=1;jettySize=auto;html=1;entryX=0;entryY=0.5;entryDx=0;entryDy=0;endArrow=none;endFill=0;" edge="1" parent="1" source="_yDDIeNhgwAIsd_Z6IYs-146" target="_yDDIeNhgwAIsd_Z6IYs-104">
          <mxGeometry relative="1" as="geometry" />
        </mxCell>
        <mxCell id="_yDDIeNhgwAIsd_Z6IYs-150" style="edgeStyle=orthogonalEdgeStyle;rounded=0;orthogonalLoop=1;jettySize=auto;html=1;entryX=0.25;entryY=1;entryDx=0;entryDy=0;endArrow=none;endFill=0;exitX=0.5;exitY=1;exitDx=0;exitDy=0;" edge="1" parent="1" source="_yDDIeNhgwAIsd_Z6IYs-146" target="_yDDIeNhgwAIsd_Z6IYs-104">
          <mxGeometry relative="1" as="geometry">
            <Array as="points">
              <mxPoint x="70" y="270" />
              <mxPoint x="242" y="270" />
            </Array>
          </mxGeometry>
        </mxCell>
        <mxCell id="_yDDIeNhgwAIsd_Z6IYs-146" value="PEÇA" style="rhombus;whiteSpace=wrap;html=1;" vertex="1" parent="1">
          <mxGeometry x="30" y="197" width="80" height="54" as="geometry" />
        </mxCell>
        <mxCell id="_yDDIeNhgwAIsd_Z6IYs-151" value="compõe" style="text;html=1;align=center;verticalAlign=middle;resizable=0;points=[];autosize=1;strokeColor=none;fillColor=none;" vertex="1" parent="1">
          <mxGeometry x="115" y="199" width="70" height="30" as="geometry" />
        </mxCell>
        <mxCell id="_yDDIeNhgwAIsd_Z6IYs-152" value="composta" style="text;html=1;align=center;verticalAlign=middle;resizable=0;points=[];autosize=1;strokeColor=none;fillColor=none;" vertex="1" parent="1">
          <mxGeometry x="60" y="267" width="80" height="30" as="geometry" />
        </mxCell>
        <mxCell id="_yDDIeNhgwAIsd_Z6IYs-164" style="edgeStyle=orthogonalEdgeStyle;rounded=0;orthogonalLoop=1;jettySize=auto;html=1;endArrow=none;endFill=0;" edge="1" parent="1" source="_yDDIeNhgwAIsd_Z6IYs-154" target="_yDDIeNhgwAIsd_Z6IYs-157">
          <mxGeometry relative="1" as="geometry" />
        </mxCell>
        <mxCell id="_yDDIeNhgwAIsd_Z6IYs-157" value="ARMAZEM" style="rounded=0;whiteSpace=wrap;html=1;" vertex="1" parent="1">
          <mxGeometry x="474.99999999999994" y="45" width="120" height="30" as="geometry" />
        </mxCell>
        <mxCell id="_yDDIeNhgwAIsd_Z6IYs-158" value="" style="ellipse;whiteSpace=wrap;html=1;aspect=fixed;" vertex="1" parent="1">
          <mxGeometry x="499.99999999999994" y="85" width="10" height="10" as="geometry" />
        </mxCell>
        <mxCell id="_yDDIeNhgwAIsd_Z6IYs-159" style="edgeStyle=orthogonalEdgeStyle;rounded=0;orthogonalLoop=1;jettySize=auto;html=1;endArrow=none;endFill=0;" edge="1" parent="1" source="_yDDIeNhgwAIsd_Z6IYs-158">
          <mxGeometry relative="1" as="geometry">
            <mxPoint x="494.95" y="75" as="targetPoint" />
            <Array as="points">
              <mxPoint x="504.95" y="75" />
            </Array>
          </mxGeometry>
        </mxCell>
        <mxCell id="_yDDIeNhgwAIsd_Z6IYs-160" value="&lt;font style=&quot;font-size: 8px;&quot;&gt;nome&lt;/font&gt;" style="text;html=1;align=center;verticalAlign=middle;resizable=0;points=[];autosize=1;strokeColor=none;fillColor=none;" vertex="1" parent="1">
          <mxGeometry x="484.99999999999994" y="95" width="40" height="30" as="geometry" />
        </mxCell>
        <mxCell id="_yDDIeNhgwAIsd_Z6IYs-161" value="" style="ellipse;whiteSpace=wrap;html=1;aspect=fixed;" vertex="1" parent="1">
          <mxGeometry x="554.95" y="85" width="10" height="10" as="geometry" />
        </mxCell>
        <mxCell id="_yDDIeNhgwAIsd_Z6IYs-162" style="edgeStyle=orthogonalEdgeStyle;rounded=0;orthogonalLoop=1;jettySize=auto;html=1;endArrow=none;endFill=0;" edge="1" parent="1" source="_yDDIeNhgwAIsd_Z6IYs-161">
          <mxGeometry relative="1" as="geometry">
            <mxPoint x="549.9000000000001" y="75" as="targetPoint" />
            <Array as="points">
              <mxPoint x="559.95" y="75" />
            </Array>
          </mxGeometry>
        </mxCell>
        <mxCell id="_yDDIeNhgwAIsd_Z6IYs-163" value="&lt;font style=&quot;font-size: 8px;&quot;&gt;localização&lt;/font&gt;" style="text;html=1;align=center;verticalAlign=middle;resizable=0;points=[];autosize=1;strokeColor=none;fillColor=none;" vertex="1" parent="1">
          <mxGeometry x="529.95" y="95" width="60" height="30" as="geometry" />
        </mxCell>
        <mxCell id="_yDDIeNhgwAIsd_Z6IYs-169" value="" style="ellipse;whiteSpace=wrap;html=1;aspect=fixed;" vertex="1" parent="1">
          <mxGeometry x="337.5" y="22" width="10" height="10" as="geometry" />
        </mxCell>
        <mxCell id="_yDDIeNhgwAIsd_Z6IYs-170" style="edgeStyle=orthogonalEdgeStyle;rounded=0;orthogonalLoop=1;jettySize=auto;html=1;entryX=0.038;entryY=0;entryDx=0;entryDy=0;entryPerimeter=0;endArrow=none;endFill=0;" edge="1" source="_yDDIeNhgwAIsd_Z6IYs-169" parent="1">
          <mxGeometry relative="1" as="geometry">
            <mxPoint x="342.5" y="42" as="targetPoint" />
          </mxGeometry>
        </mxCell>
        <mxCell id="_yDDIeNhgwAIsd_Z6IYs-171" value="&lt;font style=&quot;font-size: 8px;&quot;&gt;quantidade&lt;/font&gt;" style="text;html=1;align=center;verticalAlign=middle;resizable=0;points=[];autosize=1;strokeColor=none;fillColor=none;" vertex="1" parent="1">
          <mxGeometry x="312.5" width="60" height="30" as="geometry" />
        </mxCell>
        <mxCell id="_yDDIeNhgwAIsd_Z6IYs-154" value="&lt;font style=&quot;font-size: 8px;&quot;&gt;ESTA&lt;/font&gt;" style="rhombus;whiteSpace=wrap;html=1;" vertex="1" parent="1">
          <mxGeometry x="295" y="40" width="95" height="40" as="geometry" />
        </mxCell>
        <mxCell id="_yDDIeNhgwAIsd_Z6IYs-172" value="n" style="text;html=1;align=center;verticalAlign=middle;resizable=0;points=[];autosize=1;strokeColor=none;fillColor=none;" vertex="1" parent="1">
          <mxGeometry x="337.5" y="197" width="30" height="30" as="geometry" />
        </mxCell>
        <mxCell id="_yDDIeNhgwAIsd_Z6IYs-173" value="n" style="text;html=1;align=center;verticalAlign=middle;resizable=0;points=[];autosize=1;strokeColor=none;fillColor=none;" vertex="1" parent="1">
          <mxGeometry x="520" y="197" width="30" height="30" as="geometry" />
        </mxCell>
        <mxCell id="_yDDIeNhgwAIsd_Z6IYs-174" value="n" style="text;html=1;align=center;verticalAlign=middle;resizable=0;points=[];autosize=1;strokeColor=none;fillColor=none;" vertex="1" parent="1">
          <mxGeometry x="445" y="32" width="30" height="30" as="geometry" />
        </mxCell>
        <mxCell id="_yDDIeNhgwAIsd_Z6IYs-176" value="n" style="text;html=1;align=center;verticalAlign=middle;resizable=0;points=[];autosize=1;strokeColor=none;fillColor=none;" vertex="1" parent="1">
          <mxGeometry x="160" y="267" width="30" height="30" as="geometry" />
        </mxCell>
        <mxCell id="_yDDIeNhgwAIsd_Z6IYs-177" value="1" style="text;html=1;align=center;verticalAlign=middle;resizable=0;points=[];autosize=1;strokeColor=none;fillColor=none;" vertex="1" parent="1">
          <mxGeometry x="175" y="198" width="30" height="30" as="geometry" />
        </mxCell>
        <mxCell id="_yDDIeNhgwAIsd_Z6IYs-186" value="&lt;p style=&quot;line-height: 120%;&quot;&gt;&lt;span style=&quot;font-size: 8px;&quot;&gt;FORNECEDOR POTENCIAL&lt;/span&gt;&lt;/p&gt;" style="rhombus;whiteSpace=wrap;html=1;" vertex="1" parent="1">
          <mxGeometry x="367.5" y="440" width="95" height="50" as="geometry" />
        </mxCell>
        <mxCell id="_yDDIeNhgwAIsd_Z6IYs-190" value="1" style="text;html=1;align=center;verticalAlign=middle;resizable=0;points=[];autosize=1;strokeColor=none;fillColor=none;" vertex="1" parent="1">
          <mxGeometry x="475" y="418" width="30" height="30" as="geometry" />
        </mxCell>
        <mxCell id="_yDDIeNhgwAIsd_Z6IYs-191" value="1,n" style="text;html=1;align=center;verticalAlign=middle;resizable=0;points=[];autosize=1;strokeColor=none;fillColor=none;" vertex="1" parent="1">
          <mxGeometry x="316" y="418" width="40" height="30" as="geometry" />
        </mxCell>
        <mxCell id="_yDDIeNhgwAIsd_Z6IYs-192" value="fornece" style="text;html=1;align=center;verticalAlign=middle;resizable=0;points=[];autosize=1;strokeColor=none;fillColor=none;" vertex="1" parent="1">
          <mxGeometry x="475" y="440" width="60" height="30" as="geometry" />
        </mxCell>
        <mxCell id="_yDDIeNhgwAIsd_Z6IYs-193" value="fornecido" style="text;html=1;align=center;verticalAlign=middle;resizable=0;points=[];autosize=1;strokeColor=none;fillColor=none;" vertex="1" parent="1">
          <mxGeometry x="285" y="440" width="70" height="30" as="geometry" />
        </mxCell>
      </root>
    </mxGraphModel>
  </diagram>
</mxfile>
